<?xml version="1.0" encoding="UTF-8"?>
<svg width="210px" height="26px" viewBox="0 0 210 26" version="1.1" xmlns="http://www.w3.org/2000/svg" xmlns:xlink="http://www.w3.org/1999/xlink">
    <title>Logos/CACHATTO/white_no_R</title>
    <g id="Logos/CACHATTO/white_no_R" stroke="none" stroke-width="1" fill="none" fill-rule="evenodd">
        <polygon id="Fill-1" fill="#FFFFFF" points="114.501317 7.10542736e-15 104 26 108.000832 26 116.476309 4.99712974 116.523691 4.99712974 124.999168 26 129 26 118.500416 7.10542736e-15"></polygon>
        <polygon id="Fill-2" fill="#FFFFFF" points="34.5000693 7.10542736e-15 24 26 28.0021727 26 36.4763082 4.99712974 36.5254253 4.99712974 45.0007165 26 49 26 38.502242 7.10542736e-15"></polygon>
        <polygon id="Fill-3" fill="#FFFFFF" points="97.0967013 7.10542736e-15 97.0967013 10.9936854 82.9140376 10.9936854 82.9140376 7.10542736e-15 79 7.10542736e-15 79 26 82.9140376 26 82.9140376 14.9931114 97.0967013 14.9931114 97.0967013 26 101 26 101 7.10542736e-15"></polygon>
        <polygon id="Fill-4" fill="#FFFFFF" points="159 7.10542736e-15 159 3.99655568 168.081225 3.99655568 168.081225 26 171.908273 26 171.908273 3.99655568 181 3.99655568 181 7.10542736e-15"></polygon>
        <path d="M22.4082552,19.8972885 C22.4082552,19.8972885 17.808575,22.6240454 13.4449531,22.4937351 C7.94825186,22.4937351 3.4896309,18.5195587 3.4896309,12.9948622 C3.4896309,7.47877656 7.94825186,3.49254502 13.4449531,3.49254502 C17.5621533,3.75144341 22.4082552,6.10391704 22.4082552,6.10391704 L22.4082552,2.16303577 C22.4082552,2.16303577 18.1862681,-5.32907052e-15 13.4449531,-5.32907052e-15 C6.02639278,-5.32907052e-15 4.08562073e-14,5.82148243 4.08562073e-14,12.9948622 C4.08562073e-14,20.1797231 6.02639278,26.0000574 13.4449531,26.0000574 C18.6819903,26.0000574 22.4082552,23.8381697 22.4082552,23.8381697 L22.4082552,19.8972885 Z" id="Fill-9" fill="#FFFFFF"></path>
        <path d="M75.3527095,19.8972885 C75.3527095,19.8972885 70.7426658,22.6240454 66.3911346,22.4937351 C60.8823426,22.4937351 56.4231459,18.5195587 56.4231459,12.9948622 C56.4231459,7.47877656 60.8823426,3.49254502 66.3911346,3.49254502 C70.4939411,3.75144341 75.3527095,6.10391704 75.3527095,6.10391704 L75.3527095,2.16303577 C75.3527095,2.16303577 71.1197831,-5.32907052e-15 66.3911346,-5.32907052e-15 C58.9599078,-5.32907052e-15 52.9444543,5.82148243 52.9444543,12.9948622 C52.9444543,20.1797231 58.9599078,26.0000574 66.3911346,26.0000574 C71.6160811,26.0000574 75.3527095,23.8381697 75.3527095,23.8381697 L75.3527095,19.8972885 Z" id="Fill-6" fill="#FFFFFF"></path>
        <polygon id="Fill-5" fill="#FFFFFF" points="132 7.10542736e-15 132 3.99655568 141.093385 3.99655568 141.093385 26 144.918775 26 144.918775 3.99655568 154 3.99655568 154 7.10542736e-15"></polygon>
        <path d="M196.509343,5.7405408e-05 C203.941146,5.7405408e-05 209.955448,5.82096578 209.955448,12.9943456 C209.955448,20.1797805 203.941146,26.0001148 196.509343,26.0001148 C189.080995,26.0001148 183.06439,20.1797805 183.06439,12.9943456 C183.06439,5.82096578 189.080995,5.7405408e-05 196.509343,5.7405408e-05 Z M196.509343,3.7629819 C191.238337,3.7629819 186.957623,7.90076371 186.957623,12.9943456 C186.957623,18.0953901 191.238337,22.2383384 196.509343,22.2383384 C201.783804,22.2383384 206.064518,18.0953901 206.064518,12.9943456 C206.064518,7.90076371 201.783804,3.7629819 196.509343,3.7629819 Z" id="Combined-Shape" fill="#FFFFFF"></path>
    </g>
</svg>