<svg viewBox="0 13.865531914893616 201.98723999999999 26.575602836879433" xmlns:xlink="http://www.w3.org/1999/xlink" xmlns="http://www.w3.org/2000/svg" data-name="レイヤー 2" id="_レイヤー_2" style="max-height: 500px" width="201.98723999999999" height="26.575602836879433">
  <defs>
    <style>
      .cls-1 {
        fill: url(#_新規グラデーションスウォッチ_5);
      }

      .cls-2 {
        fill: #2252c1;
      }

      .cls-2, .cls-3 {
        fill-rule: evenodd;
      }

      .cls-3 {
        fill: url(#_新規グラデーションスウォッチ_6);
      }
    </style>
    <linearGradient gradientUnits="userSpaceOnUse" y2="19.86" x2="252.64" y1="19.86" x1="211.85" data-name="新規グラデーションスウォッチ 6" id="_新規グラデーションスウォッチ_6">
      <stop stop-color="#3fccc7" offset=".05"/>
      <stop stop-color="#35a6f9" offset=".48"/>
      <stop stop-color="#7b6fc7" offset=".9"/>
    </linearGradient>
    <linearGradient gradientUnits="userSpaceOnUse" y2="29.65" x2="289.38" y1="29.65" x1="245.2" data-name="新規グラデーションスウォッチ 5" id="_新規グラデーションスウォッチ_5">
      <stop stop-color="#7b6fc7" offset=".05"/>
      <stop stop-color="#ff83ab" offset=".46"/>
      <stop stop-color="#fe84a5" offset=".5"/>
      <stop stop-color="#fd8794" offset=".55"/>
      <stop stop-color="#fb8d78" offset=".61"/>
      <stop stop-color="#f89551" offset=".68"/>
      <stop stop-color="#f59f20" offset=".75"/>
      <stop stop-color="#f3a503" offset=".79"/>
      <stop stop-color="#f3d703" offset=".97"/>
    </linearGradient>
  </defs>
  <g id="logo">
    <g>
      <g>
        <polyline points="112.46 19.49 104.34 39.72 100.52 39.72 110.57 14.67 114.39 14.67 124.44 39.72 120.61 39.72 112.5 19.49" class="cls-2"/>
        <polyline points="36.17 19.49 28.06 39.72 24.23 39.72 34.28 14.67 38.11 14.67 48.16 39.72 44.33 39.72 36.21 19.49" class="cls-2"/>
        <polygon points="80.12 29.12 80.12 39.72 76.29 39.72 76.29 14.67 80.12 14.67 80.12 25.27 93.99 25.27 93.99 14.67 97.81 14.67 97.81 39.72 93.99 39.72 93.99 29.12 80.12 29.12" class="cls-2"/>
        <polygon points="165.25 18.52 165.25 39.72 161.41 39.72 161.41 18.52 152.33 18.52 152.33 14.67 174.34 14.67 174.34 18.52 165.25 18.52" class="cls-2"/>
        <polygon points="139.83 18.52 139.83 39.72 136 39.72 136 18.52 126.9 18.52 126.9 14.67 148.91 14.67 148.91 18.52 139.83 18.52" class="cls-2"/>
        <path d="M72.38,33.84s-4.43,2.63-8.61,2.5c-5.29,0-9.57-3.83-9.57-9.15s4.28-9.15,9.57-9.15c3.94.25,8.61,2.52,8.61,2.52v-3.8s-4.07-2.08-8.61-2.08c-7.14,0-12.92,5.61-12.92,12.52s5.78,12.53,12.92,12.53c5.02,0,8.61-2.08,8.61-2.08v-3.8Z" class="cls-2"/>
        <path d="M21.53,33.84s-4.42,2.63-8.61,2.5c-5.28,0-9.56-3.83-9.56-9.15s4.28-9.15,9.56-9.15c3.95.25,8.61,2.52,8.61,2.52v-3.8s-4.06-2.08-8.61-2.08C5.79,14.67,0,20.28,0,27.19s5.79,12.53,12.91,12.53c5.03,0,8.61-2.08,8.61-2.08v-3.8Z" class="cls-2"/>
        <path d="M188.76,14.67c7.14,0,12.92,5.61,12.92,12.52s-5.78,12.53-12.92,12.53-12.91-5.61-12.91-12.53,5.78-12.52,12.91-12.52ZM188.76,18.3c5.07,0,9.18,3.99,9.18,8.89s-4.11,8.9-9.18,8.9-9.17-3.99-9.17-8.9,4.11-8.89,9.17-8.89" class="cls-2"/>
      </g>
      <g>
        <path d="M243.39,25.03c-1.99,3.99-6.19,6.75-11.06,6.75-6.78,0-12.28-5.34-12.28-11.92s5.51-11.91,12.28-11.91c5.78,0,10.62,3.87,11.93,9.08.27-.17.59-.27.94-.27h5.05c.62,0,1.17.31,1.49.79.3-.11.6-.2.9-.29-1.31-9.73-9.9-17.26-20.31-17.26-11.31,0-20.48,8.89-20.48,19.85s9.17,19.87,20.48,19.87c4.08,0,7.87-1.16,11.06-3.14v-11.55Z" class="cls-3"/>
        <path d="M267.07,35.86v3.86h-5.05v-10.22c0-3.24-2.64-5.88-5.88-5.88s-5.88,2.64-5.88,5.88v10.22h-5.05v-21.16h5.05v1.73c1.7-1.09,3.72-1.73,5.88-1.73,4.47,0,8.32,2.7,10.02,6.56-.93,2.43-1.06,5.06-.37,7.63.29,1.09.73,2.13,1.3,3.11ZM289.38,32.03c-.15.8-.38,1.58-.72,2.33-1.77,4.01-5.78,6.37-10.02,6.37-1.56,0-3.16-.32-4.69-1-2.17-.96-3.97-2.54-5.19-4.56-.55-.91-.96-1.88-1.23-2.89-.64-2.39-.46-4.83.53-7.05,1.18-2.66,3.36-4.68,6.15-5.69,2.77-1.01,5.81-.89,8.56.32,2.18.96,3.97,2.54,5.2,4.56.55.91.96,1.88,1.24,2.89.07.28.13.55.19.83l-4.56,1.74h0s-10.9,4.15-10.9,4.15c.57.56,1.22,1.03,1.96,1.35,1.57.69,3.3.76,4.89.19,1.57-.57,2.79-1.7,3.45-3.19.05-.12.08-.24.13-.36h5.04ZM272.5,27.2c-.35.78-.5,1.62-.49,2.47l10.78-4.11c-.57-.56-1.23-1.03-1.97-1.36-.86-.38-1.77-.57-2.68-.57-.74,0-1.49.13-2.2.39-1.56.57-2.79,1.7-3.45,3.18Z" class="cls-1"/>
      </g>
    </g>
  </g>
</svg>